<?xml version="1.0" encoding="UTF-8"?>
<svg version="1.1" viewBox="0 0 650 500" xmlns="http://www.w3.org/2000/svg">
 <g transform="rotate(179.12 319.11 271.87)" fill="#ffffff">
  <g transform="matrix(.98901 -.11248 -.14785 -.75237 53.445 98.878)">
   <path transform="rotate(90.113 385.48 -253.55)" d="m404.87-290.13c0.9419 0.18463 1.4547 2.7646 1.258 7.1154-0.19775 4.3499-1.1451 10.472-3.2726 17.442-1.7468 5.7174-4.2996 11.985-7.7056 18.194-2.9286 5.3402-6.2017 10.123-9.4854 14.177-3.2848 4.0546-6.5764 7.3845-9.5243 9.9347-2.9488 2.5502-5.5502 4.327-7.501 5.3334-1.9509 1.0074-3.2472 1.2529-3.6828 0.70636-0.43549-0.54572 0.024719-1.8303 1.1458-3.7144 1.1201-1.8852 2.8973-4.3774 5.0582-7.4161 2.161-3.0386 4.7048-6.6271 7.3727-10.698 2.668-4.0693 5.4572-8.6219 8.1545-13.539 3.137-5.7187 5.8017-11.302 8.0103-16.359 2.6969-6.1723 4.7371-11.554 6.3616-15.352 1.6245-3.7976 2.8685-6.0097 3.8105-5.8251z"/>
   <path transform="rotate(90.113 384.45 -214.7)" d="m366.08-249.82c0.92514-0.14923 2.1083 1.976 3.6392 5.6108 1.5309 3.6337 3.444 8.7783 5.9874 14.687 2.0831 4.8409 4.6042 10.192 7.5858 15.684 2.5636 4.7216 5.2229 9.1012 7.7712 13.022 2.5482 3.9206 4.9813 7.3821 7.0503 10.314 2.0679 2.9315 3.7687 5.3358 4.8358 7.1485 1.068 1.8118 1.4984 3.0378 1.0635 3.5432-0.43585 0.5051-1.7003 0.23828-3.5944-0.76678-1.894-1.005-4.413-2.7538-7.2601-5.2444-2.847-2.4907-6.0163-5.7277-9.1685-9.65-3.1523-3.9231-6.2808-8.5324-9.0642-13.661-3.2371-5.9628-5.6382-11.958-7.2586-17.411-1.9735-6.648-2.805-12.463-2.9305-16.582-0.12439-4.1188 0.41815-6.5449 1.3432-6.6941z"/>
   <path transform="rotate(90.113 356.54 -233.86)" d="m322.32-226.39c-0.4577-1.0923 0.80151-3.1879 3.5687-5.6179 2.7665-2.4277 7.0662-5.1489 12.596-7.155 4.5367-1.6436 9.8967-2.7817 15.738-2.9965 5.0228-0.18561 9.915 0.32593 14.371 1.2884 4.4562 0.9635 8.4763 2.3734 11.813 3.8971 3.3376 1.5254 5.9938 3.157 7.7872 4.5779 1.7948 1.4196 2.7288 2.6209 2.6603 3.4049-0.068542 0.784-1.1285 1.083-2.9547 1.0567-1.8253-0.024536-4.4178-0.36505-7.5754-0.77356-3.1574-0.40997-6.8819-0.88446-10.974-1.1974-4.0917-0.31195-8.5511-0.45831-13.177-0.28796-5.38 0.19678-10.391 0.80426-14.806 1.568-5.3894 0.9306-9.8996 2.0655-13.194 2.6738-3.295 0.60901-5.394 0.6532-5.8525-0.43854z"/>
  </g>
  <path d="m417.99 246.71c19.571-6.1792 52.007-14.438-86.973 2.234s-145.26 13.134-181.29 26.882c-36.033 13.748-21.636 32.175-10.859 42.377 10.778 10.202 27.682 35.378 36.928 25.073 9.2467-10.305-74.231-41.748-13.579-61.132 60.653-19.384 91.943-16.164 127.72-19.995 35.772-3.8315 108.48-9.2591 128.06-15.438z" stroke-width="null"/>
 </g>
</svg>
