<?xml version="1.0" encoding="UTF-8"?>
<svg version="1.1" viewBox="0 0 650 500" xmlns="http://www.w3.org/2000/svg">
 <g fill="#ffffff">
  <path d="m540.85 252.86c0.054138-3.6641-103.45-7.1329-231.04-7.7422-127.59-0.60933-231.18 1.8691-231.24 5.5332-0.054024 3.6641 103.45 7.1316 231.04 7.7423 127.59 0.60931 231.18-1.8692 231.24-5.5333z"/>
  <path d="m559.7 253.55c-0.23309-1.1127-3.7298-1.7424-9.6467-1.5521-5.9156 0.19144-14.254 1.25-23.768 3.6924-7.8036 2.0053-16.37 4.9561-24.873 8.9137-7.3135 3.4029-13.875 7.2175-19.448 11.052-5.5728 3.8353-10.161 7.6856-13.683 11.138-3.5218 3.4536-5.9858 6.5048-7.3907 8.796-1.4062 2.2913-1.7644 3.818-1.0297 4.3369 0.73334 0.51892 2.4879-0.011536 5.0699-1.3157 2.5835-1.303 6.0042-3.3752 10.175-5.8948s9.096-5.4854 14.679-8.5932c5.5812-3.1077 11.821-6.3537 18.556-9.4879 7.8318-3.6451 15.471-6.7343 22.385-9.2908 8.44-3.1216 15.793-5.4763 20.985-7.3559 5.1921-1.8796 8.222-3.3256 7.989-4.4384z"/>
  <path d="m556.42 252.24c0.22034-1.0897-2.6455-2.5057-7.5568-4.3462-4.9096-1.8406-11.866-4.1464-19.848-7.2031-6.54-2.5034-13.766-5.5285-21.173-9.0979-6.3685-3.0691-12.271-6.2477-17.551-9.2909-5.2803-3.0432-9.9388-5.9463-13.884-8.4147-3.945-2.4673-7.1804-4.4964-9.6239-5.7724-2.4422-1.2771-4.1004-1.7965-4.7954-1.2884-0.69486 0.50925-0.35605 2.0032 0.97397 4.2469s3.6593 5.2315 6.9904 8.6134 7.6706 7.1511 12.942 10.907c5.2723 3.7557 11.478 7.4899 18.395 10.822 8.0428 3.8754 16.145 6.7649 23.526 8.7286 8.9981 2.3916 16.885 3.4282 22.482 3.6157 5.5956 0.18631 8.9031-0.43027 9.1234-1.5199z"/>
 </g>
</svg>
